# xmcd
#
# Track frame offsets: 
#        150
#        28265
#        51507
#        74255
#        94892
#        127470
#        146930
#        168790
#
# Disc length: 2512 seconds
#
# Revision: 1
# Processed by: cddbd v1.5.2PL0 Copyright (c) Steve Scherf et al.
# Submitted via: ExactAudioCopy v0.99pb5
#
DISCID=8009ce08
DTITLE=The Whispers - Imagination
DYEAR=1978
DGENRE=R&B
TTITLE0=Imagination
TTITLE1=It's A Love Thing
TTITLE2=Say You (Would You Love Me Too)
TTITLE3=Continental Shuffle
TTITLE4=I Can It Better
TTITLE5=Girl I Need You
TTITLE6=Up On Soul Train
TTITLE7=Fantasy
EXTD=
EXTT0=
EXTT1=
EXTT2=
EXTT3=
EXTT4=
EXTT5=
EXTT6=
EXTT7=
PLAYORDER=
